<?xml version="1.0" encoding="utf-8"?>
<!-- Generator: Adobe Illustrator 23.0.3, SVG Export Plug-In . SVG Version: 6.00 Build 0)  -->
<svg version="1.1" id="Layer_1" xmlns="http://www.w3.org/2000/svg" xmlns:xlink="http://www.w3.org/1999/xlink" x="0px" y="0px"
	 viewBox="0 0 1201.5 1176.3" style="enable-background:new 0 0 1201.5 1176.3;" xml:space="preserve">
<style type="text/css">
	.st0{fill:#E41E26;}
	.st1{fill:#DB1F26;}
	.st2{fill:#E21F26;}
	.st3{fill:#D22027;}
	.st4{fill:#B11F24;}
	.st5{fill:#951A1D;}
	.st6{fill:#841618;}
	.st7{fill:#5A0E11;}
	.st8{fill:#600B0C;}
	.st9{fill:#2B1010;}
	.st10{fill:#361212;}
	.st11{fill:#411312;}
	.st12{fill:#341212;}
	.st13{fill:#3E1312;}
	.st14{fill:#4A1313;}
	.st15{fill:#670E0F;}
	.st16{fill:#620D0E;}
	.st17{fill:#670F0F;}
	.st18{fill:#4D1313;}
	.st19{fill:#331214;}
	.st20{fill:#311312;}
	.st21{fill:#280F12;}
	.st22{fill:#230D0E;}
	.st23{fill:#290F10;}
	.st24{fill:#311212;}
	.st25{fill:#391312;}
	.st26{fill:#521212;}
	.st27{fill:#421312;}
	.st28{fill:#3A1312;}
	.st29{fill:#3F1313;}
	.st30{fill:#590E0E;}
	.st31{fill:#6F0F10;}
	.st32{fill:#5F0C0C;}
	.st33{fill:#721011;}
	.st34{fill:#650E0F;}
	.st35{fill:#5B0C0D;}
	.st36{fill:#371212;}
	.st37{fill:#7B1315;}
	.st38{fill:#4D1212;}
	.st39{fill:#551010;}
	.st40{fill:#4F1312;}
	.st41{fill:#5E0B0C;}
	.st42{fill:#2F1212;}
	.st43{fill:#3C1313;}
	.st44{fill:#531210;}
	.st45{fill:#581111;}
	.st46{fill:#521211;}
	.st47{fill:#69100E;}
	.st48{fill:#751113;}
	.st49{fill:#8D181B;}
	.st50{fill:#660F10;}
	.st51{fill:#5B0D0D;}
	.st52{fill:#471212;}
	.st53{fill:#921A1D;}
	.st54{fill:#A51E22;}
	.st55{fill:#CC2027;}
	.st56{fill:#771213;}
	.st57{fill:#6F0E10;}
	.st58{fill:#7E1416;}
	.st59{fill:#8C191B;}
	.st60{fill:#8C181B;}
	.st61{fill:#931A1D;}
	.st62{fill:#A31E21;}
	.st63{fill:#9B1C1F;}
	.st64{fill:#9F1D20;}
	.st65{fill:#AE1F23;}
	.st66{fill:#A11D21;}
	.st67{fill:#B21F24;}
	.st68{fill:#A21D21;}
	.st69{fill:#851619;}
	.st70{fill:#961B1E;}
	.st71{fill:#741112;}
	.st72{fill:#7A1314;}
	.st73{fill:#A41E21;}
	.st74{fill:#B92025;}
	.st75{fill:#D81F26;}
	.st76{fill:#C82027;}
	.st77{fill:#C22026;}
	.st78{fill:#CF2027;}
	.st79{fill:#D61F26;}
	.st80{fill:#BA2025;}
	.st81{fill:#AB1E23;}
</style>
<polygon class="st0" points="1.5,0 59.6,114.8 168,19.1 89.9,0 "/>
<polygon class="st1" points="59.6,114.8 26.3,176.4 30.5,57.4 "/>
<polygon class="st2" points="26.3,176.4 1.5,0 30.5,57.4 "/>
<polygon class="st3" points="10.7,221.4 26.3,176.4 1.5,0 "/>
<polygon class="st4" points="1.5,339.6 10.7,221.4 1.5,0 "/>
<polygon class="st5" points="10.7,221.4 26.3,259.7 1.5,402.2 1.5,339.6 "/>
<polygon class="st6" points="26.3,259.7 114.3,441.3 1.5,465.7 1.5,402.2 "/>
<polygon class="st7" points="37.1,753.1 114.3,441.3 1.5,465.7 1.5,553.7 "/>
<polygon class="st8" points="1.5,904.4 37.1,753.1 1.5,553.7 "/>
<polygon class="st9" points="1.5,970.5 1.5,904.4 37.1,753.1 64.4,876.2 "/>
<polygon class="st10" points="1.5,1130.3 64.4,876.2 1.5,970.5 "/>
<polygon class="st11" points="1.5,1177.7 447.6,979.8 64.4,876.2 1.5,1130.3 "/>
<polygon class="st12" points="447.6,979.8 685.1,1043.5 1.5,1177.7 "/>
<polygon class="st13" points="690.9,1063.9 685.1,1043.5 1.5,1177.7 "/>
<polygon class="st14" points="964.6,1177.7 690.9,1063.9 1.5,1177.7 "/>
<polygon class="st15" points="814.1,1063.9 685.1,1043.5 690.9,1063.9 "/>
<polygon class="st16" points="964.6,1177.7 814.1,1063.9 690.9,1063.9 "/>
<polygon class="st17" points="831.7,1043.5 814.1,1063.9 964.6,1177.7 979.3,1177.7 "/>
<polygon class="st18" points="1014.4,1008.2 992,1177.7 979.3,1177.7 831.7,1043.5 "/>
<polygon class="st19" points="1140,1013 1014.4,1008.2 992,1177.7 999.8,1177.7 "/>
<polygon class="st9" points="999.8,1177.7 1201.5,940.7 1201.5,1177.7 "/>
<polygon class="st20" points="1043.8,961.3 1053.5,974.9 1014.4,1008.2 "/>
<polygon class="st21" points="1053.5,974.9 1140,1013 1014.4,1008.2 "/>
<polygon class="st9" points="1043.8,961.3 1140,1013 1053.5,974.9 "/>
<polygon class="st22" points="1201.5,729.6 1043.8,961.3 1140,1013 1201.5,940.7 "/>
<polygon class="st23" points="979.3,710.1 1201.5,729.6 1043.8,961.3 "/>
<polygon class="st24" points="930.4,913.4 979.3,710.1 1043.8,961.3 "/>
<polygon class="st25" points="1014.4,1008.2 1043.8,961.3 930.4,913.4 "/>
<polygon class="st26" points="831.7,1043.5 930.4,913.4 1014.4,1008.2 "/>
<polygon class="st27" points="1059.4,394.4 1201.5,729.6 979.3,710.1 "/>
<polygon class="st28" points="916.7,530.2 1059.4,394.4 979.3,710.1 "/>
<polygon class="st11" points="787.7,716.9 916.7,530.2 979.3,710.1 "/>
<polygon class="st29" points="854.2,762.8 979.3,710.1 930.4,913.4 "/>
<polygon class="st30" points="787.7,716.9 854.2,762.8 979.3,710.1 "/>
<polygon class="st31" points="685.1,1043.5 831.7,1043.5 814.1,1063.9 "/>
<polygon class="st32" points="854.2,762.8 831.7,1043.5 930.4,913.4 "/>
<polygon class="st33" points="685.1,1043.5 854.2,762.8 831.7,1043.5 "/>
<polygon class="st34" points="787.7,716.9 685.1,1043.5 854.2,762.8 "/>
<polygon class="st35" points="1059.4,394.4 1141.5,166.6 1201.5,729.6 "/>
<polygon class="st36" points="1201.5,0 1141.5,166.6 1201.5,729.6 "/>
<polygon class="st37" points="487.6,769.7 787.7,716.9 685.1,1043.5 "/>
<polygon class="st38" points="64.4,876.2 487.6,769.7 685.1,1043.5 447.6,979.8 "/>
<polygon class="st39" points="379.2,729.6 487.6,769.7 64.4,876.2 "/>
<polygon class="st40" points="271.6,674.9 379.2,729.6 64.4,876.2 "/>
<polygon class="st27" points="37.1,753.1 271.6,674.9 64.4,876.2 "/>
<polygon class="st41" points="114.3,441.3 271.6,674.9 37.1,753.1 "/>
<polygon class="st42" points="1090.4,13.2 1124.9,0 1201.5,0 1141.5,166.6 1130.4,162.7 "/>
<polygon class="st28" points="840.5,83.3 1090.4,13.2 1130.4,162.7 "/>
<polygon class="st43" points="1019.3,328.9 1130.4,162.7 1141.5,166.6 "/>
<polygon class="st44" points="1059.4,394.4 1019.3,328.9 1141.5,166.6 "/>
<polygon class="st45" points="840.5,83.3 1019.3,328.9 1130.4,162.7 "/>
<polygon class="st30" points="916.7,530.2 1019.3,328.9 1059.4,394.4 "/>
<polygon class="st46" points="831.7,362.7 1019.3,328.9 916.7,530.2 "/>
<polygon class="st47" points="669.4,534.1 831.7,362.7 916.7,530.2 "/>
<polygon class="st48" points="787.7,716.9 916.7,530.2 669.4,534.1 "/>
<polygon class="st49" points="487.6,769.7 669.4,534.1 787.7,716.9 "/>
<polygon class="st50" points="831.7,362.7 840.5,83.3 1019.3,328.9 "/>
<polygon class="st51" points="507.2,35.7 840.5,83.3 1090.4,13.2 "/>
<polygon class="st52" points="1124.9,0 920.6,0 507.2,35.7 1090.4,13.2 "/>
<polygon class="st53" points="210.1,0 507.2,35.7 920.6,0 "/>
<polygon class="st54" points="168,0 210.1,0 507.2,35.7 422.2,35.7 "/>
<polygon class="st55" points="168,19.1 422.2,35.7 168,0 89.9,0 "/>
<polygon class="st56" points="507.2,35.7 621.5,142.1 840.5,83.3 "/>
<polygon class="st37" points="642.1,285.1 621.5,142.1 840.5,83.3 "/>
<polygon class="st57" points="831.7,362.7 642.1,285.1 840.5,83.3 "/>
<polygon class="st58" points="637.7,373.9 642.1,285.1 831.7,362.7 "/>
<polygon class="st6" points="669.4,534.1 637.7,373.9 831.7,362.7 "/>
<polygon class="st59" points="539.4,192.1 621.5,142.1 642.1,285.1 "/>
<polygon class="st60" points="507.2,35.7 539.4,192.1 621.5,142.1 "/>
<polygon class="st61" points="422.2,35.7 539.4,192.1 507.2,35.7 "/>
<polygon class="st62" points="446.6,259.7 422.2,35.7 539.4,192.1 "/>
<polygon class="st63" points="642.1,285.1 446.6,259.7 539.4,192.1 "/>
<polygon class="st64" points="637.7,373.9 446.6,259.7 642.1,285.1 "/>
<polygon class="st65" points="517,453 637.7,373.9 446.6,259.7 "/>
<polygon class="st66" points="669.4,534.1 517,453 637.7,373.9 "/>
<polygon class="st67" points="487.6,769.7 517,453 669.4,534.1 "/>
<polygon class="st68" points="446.6,485.3 517,453 487.6,769.7 "/>
<polygon class="st69" points="379.2,729.6 446.6,485.3 487.6,769.7 "/>
<polygon class="st70" points="359.6,480 379.2,729.6 446.6,485.3 "/>
<polygon class="st71" points="271.6,674.9 359.6,480 379.2,729.6 "/>
<polygon class="st72" points="114.3,441.3 359.6,480 271.6,674.9 "/>
<polygon class="st73" points="98.6,246.7 114.3,441.3 359.6,480 "/>
<polygon class="st74" points="168,19.1 446.6,259.7 422.2,35.7 "/>
<polygon class="st75" points="98.6,246.7 168,19.1 59.6,114.8 "/>
<polygon class="st55" points="446.6,259.7 446.6,485.3 517,453 "/>
<polygon class="st76" points="98.6,246.7 446.6,259.7 359.6,480 "/>
<polygon class="st77" points="446.6,485.3 446.6,259.7 359.6,480 "/>
<polygon class="st78" points="168,19.1 446.6,259.7 98.6,246.7 "/>
<polygon class="st79" points="26.3,176.4 98.6,246.7 59.6,114.8 "/>
<polygon class="st77" points="10.7,221.4 26.3,176.4 98.6,246.7 "/>
<polygon class="st80" points="26.3,259.7 98.6,246.7 10.7,221.4 "/>
<polygon class="st81" points="114.3,441.3 98.6,246.7 26.3,259.7 "/>
</svg>
